<?xml version="1.0" encoding="UTF-8" standalone="no" ?>
<!DOCTYPE svg PUBLIC "-//W3C//DTD SVG 1.1//EN" "http://www.w3.org/Graphics/SVG/1.1/DTD/svg11.dtd">
<svg xmlns="http://www.w3.org/2000/svg" xmlns:xlink="http://www.w3.org/1999/xlink" version="1.1" width="1080" height="1080" viewBox="0 0 1080 1080" xml:space="preserve">
<desc>Created with Fabric.js 5.2.4</desc>
<defs>
</defs>
<rect x="0" y="0" width="100%" height="100%" fill="transparent"></rect>
<g transform="matrix(1 0 0 1 540 540)" id="ccd64a1a-35c9-4f33-95d3-ce7dfa95e765"  >
<rect style="stroke: none; stroke-width: 1; stroke-dasharray: none; stroke-linecap: butt; stroke-dashoffset: 0; stroke-linejoin: miter; stroke-miterlimit: 4; fill: rgb(255,255,255); fill-rule: nonzero; opacity: 1; visibility: hidden;" vector-effect="non-scaling-stroke"  x="-540" y="-540" rx="0" ry="0" width="1080" height="1080" />
</g>
<g transform="matrix(1 0 0 1 540 540)" id="6a71c3f8-c01a-49ee-9771-909a8b7781e3"  >
</g>
<g transform="matrix(NaN NaN NaN NaN 0 0)"  >
<g style=""   >
</g>
</g>
<g transform="matrix(NaN NaN NaN NaN 0 0)"  >
<g style=""   >
</g>
</g>
<g transform="matrix(1.33 0 0 1.33 540 540)"  >
<path style="stroke: none; stroke-width: 1; stroke-dasharray: none; stroke-linecap: butt; stroke-dashoffset: 0; stroke-linejoin: miter; stroke-miterlimit: 4; fill: rgb(55,185,160); fill-rule: nonzero; opacity: 1;" vector-effect="non-scaling-stroke"  transform=" translate(-352.78, -282.96)" d="M 312.76 196 L 307.7209 182.785 L 307.716994 182.785 C 312.431794 180.9686 317.013894 178.8358 321.439994 176.3983 C 325.049394 174.4178 327.975194 171.39440000000002 329.838394 167.7186 C 330.955594 165.1678 331.381394 162.36700000000002 331.068894 159.6014 C 330.986863 158.2655 330.725144 156.9452 330.287644 155.67950000000002 L 347.592644 149.51930000000002 L 396.592644 253.5693 L 371.893644 263.2021 L 338.799644 186.31509999999997 z M 426.61 134.398 C 439.005 142.5699 449.305 153.543 456.68 166.433 C 467.094 182.839 472.582 197.17499999999998 472.696 209.04999999999998 C 472.80928 220.921 465.36010000000005 230.55399999999997 450.298 236.378 L 450.298 236.37409399999999 C 437.22 242.44829399999998 421.903 241.147494 410.032 232.959994 C 397.173 222.818994 387.01599999999996 209.662994 380.466 194.654994 C 372.4035 177.853994 369.267 164.86199399999998 370.55580000000003 154.615994 C 371.84490000000005 144.369994 379.1222 137.424994 392.22780000000006 132.720994 L 392.2238940000001 132.717088 C 403.33289400000007 127.947588 416.0208940000001 128.564788 426.6108940000001 134.396788 z M 421.0084 212.796 L 421.0084 212.799906 C 423.2467 215.538206 426.29359999999997 217.495206 429.7115 218.40150599999998 C 433.1295 219.30775599999998 436.7467 219.108536 440.0475 217.83900599999998 C 443.14910000000003 217.01088599999997 445.74670000000003 214.897606 447.1803 212.02650599999998 C 448.6178 209.15540599999997 448.75059999999996 205.807706 447.55138999999997 202.83120599999998 C 444.61778999999996 192.82320599999997 440.28189 183.28420599999998 434.67238999999995 174.495206 C 429.88328999999993 165.616306 423.86738999999994 157.452206 416.80938999999995 150.245206 C 414.67659 148.053806 411.93828999999994 146.549906 408.9421899999999 145.932706 C 405.9460899999999 145.315516 402.8366899999999 145.608486 400.0085899999999 146.776456 C 394.45778999999993 148.085056 390.93828999999994 153.557656 392.0554899999999 159.151456 C 394.1609899999999 168.678756 397.77028999999993 177.807456 402.7544899999999 186.198456 C 407.5200899999999 195.86255599999998 413.6064899999999 204.811456 420.84048999999993 212.800456 z M 600.3784 223.999 L 566.7764000000001 167.999 L 566.7803060000001 167.999 C 565.5850060000001 165.9599 563.7569060000001 164.3662 561.5694060000001 163.4638 L 270.3694060000001 40.26379999999999 C 264.9788060000001 37.96299999999999 258.72840600000006 40.20911299999999 256.03340600000007 45.41219999999999 L 104.83340600000008 336.6122 L 104.83340600000008 336.616107 C 102.91150600000009 340.323107 103.21620600000008 344.791907 105.61856600000009 348.206107 L 144.81756600000008 404.206107 C 146.06756600000008 405.967807 147.7980660000001 407.327207 149.80196600000008 408.12800699999997 L 441.00196600000004 525.7280069999999 L 441.00196600000004 525.7240999999999 C 446.37696600000004 527.9037999999999 452.521966 525.6186299999999 455.16996600000004 520.4623999999999 L 600.7699660000001 234.86239999999987 C 602.5199660000001 231.41709999999986 602.3754660000001 227.31159999999986 600.375436 223.99939999999987 z M 293.49840000000006 263.983 L 273.1704000000001 65.743 L 544.8304 180.543 L 465.0844000000001 285.26300000000003 z M 127.84840000000005 340.76 L 263.36840000000007 79.69 L 282.8024000000001 266.62 L 180.7724000000001 363.05 L 128.0774000000001 341.09700000000004 z M 161.45040000000006 388.471 L 140.05540000000005 358.397 L 179.25440000000003 374.74899999999997 L 321.3244 453.14699999999993 z M 441.28040000000004 498.401 L 439.88200000000006 501.14320000000004 L 407.28800000000007 487.9832 L 191.46800000000007 368.4332 L 290.3080000000001 274.6872 L 461.4480000000001 296.07820000000004 z M 455.28040000000004 470.90500000000003 L 473.19840000000005 293.33500000000004 L 552.9994 188.38500000000005 L 577.9764 230.04900000000004 z" stroke-linecap="round" />
</g>
<g transform="matrix(NaN NaN NaN NaN 0 0)"  >
<g style=""   >
</g>
</g>
<g transform="matrix(NaN NaN NaN NaN 0 0)"  >
<g style=""   >
</g>
</g>
</svg>