<?xml version="1.0" encoding="UTF-8" standalone="no" ?>
<!DOCTYPE svg PUBLIC "-//W3C//DTD SVG 1.1//EN" "http://www.w3.org/Graphics/SVG/1.1/DTD/svg11.dtd">
<svg xmlns="http://www.w3.org/2000/svg" xmlns:xlink="http://www.w3.org/1999/xlink" version="1.1" width="1080" height="1080" viewBox="0 0 1080 1080" xml:space="preserve">
<desc>Created with Fabric.js 5.2.4</desc>
<defs>
</defs>
<rect x="0" y="0" width="100%" height="100%" fill="transparent"></rect>
<g transform="matrix(1 0 0 1 540 540)" id="ccd64a1a-35c9-4f33-95d3-ce7dfa95e765"  >
<rect style="stroke: none; stroke-width: 1; stroke-dasharray: none; stroke-linecap: butt; stroke-dashoffset: 0; stroke-linejoin: miter; stroke-miterlimit: 4; fill: rgb(255,255,255); fill-rule: nonzero; opacity: 1; visibility: hidden;" vector-effect="non-scaling-stroke"  x="-540" y="-540" rx="0" ry="0" width="1080" height="1080" />
</g>
<g transform="matrix(1 0 0 1 540 540)" id="6a71c3f8-c01a-49ee-9771-909a8b7781e3"  >
</g>
<g transform="matrix(NaN NaN NaN NaN 0 0)"  >
<g style=""   >
</g>
</g>
<g transform="matrix(NaN NaN NaN NaN 0 0)"  >
<g style=""   >
</g>
</g>
<g transform="matrix(NaN NaN NaN NaN 0 0)"  >
<g style=""   >
</g>
</g>
<g transform="matrix(NaN NaN NaN NaN 0 0)"  >
<g style=""   >
</g>
</g>
<g transform="matrix(1.33 0 0 1.33 540 540)"  >
<path style="stroke: none; stroke-width: 1; stroke-dasharray: none; stroke-linecap: butt; stroke-dashoffset: 0; stroke-linejoin: miter; stroke-miterlimit: 4; fill: rgb(55,185,160); fill-rule: nonzero; opacity: 1;" vector-effect="non-scaling-stroke"  transform=" translate(-347.27, -280.07)" d="M 265.38 179.93 L 254.18099999999998 167.66400000000002 C 259.1146 164.56240000000003 263.81379999999996 161.09760000000003 268.236 157.305 C 271.6774 154.4573 274.0172 150.4925 274.8454 146.106 C 275.20477999999997 143.1685 274.63446 140.1919 273.2204 137.5943 C 272.61102 136.2271 271.7985 134.96540000000002 270.81419999999997 133.84040000000002 L 288.39619999999996 123.19940000000001 L 383.1502 213.4144 L 359.7982 230.5514 L 292.5992 162.68040000000002 z M 379.23 181.6644 C 375.4214 173.3206 375.3081 162.1214 378.83938 148.0624 C 381.00348 140.5116 382.42918000000003 132.7654 383.09718 124.9374 C 383.03468 119.078 380.26518 113.5784 375.59328 110.0394 C 371.86278 107.0042 367.36668 105.0667 362.60128 104.4417 C 357.85517999999996 103.80108 353.03878 104.85186 348.99228 107.4065 C 343.00007999999997 111.0471 340.87118 115.24629999999999 342.66418 120.0085 C 344.79308 124.321 347.80868 128.13739999999999 351.51187999999996 131.2075 L 331.46487999999994 143.9225 C 325.42187999999993 138.5866 320.8358799999999 131.8015 318.13687999999996 124.20750000000001 C 315.11348 113.28550000000001 320.37517999999994 103.93450000000001 333.76187999999996 96.20750000000001 C 343.30877999999996 90.2973 354.40288 87.37550000000002 365.62487999999996 87.80910000000002 C 376.50787999999994 88.28957000000001 386.95687999999996 92.21140000000001 395.47288 99.00810000000001 C 401.82057999999995 103.44170000000001 406.30487999999997 110.06310000000002 408.07088 117.60210000000001 C 408.94979 124.0943 408.53182 130.70010000000002 406.84038 137.0321 L 404.71148 147.0551 C 403.63338 151.559 402.81308 156.1215 402.24667999999997 160.7191 C 401.98886999999996 163.5003 402.31308599999994 166.305 403.1998 168.9535 L 446.7118 138.2655 L 465.75079999999997 152.9925 L 395.19179999999994 204.7935 C 388.24649999999997 198.3443 382.79679999999996 190.44549999999998 379.23079999999993 181.6645 z M 589.96 265.0474 L 541.855 147.4474 L 541.855 147.45130699999999 C 541.0971900000001 145.56070699999998 539.8394000000001 143.91610699999998 538.2144000000001 142.689607 L 410.03440000000006 46.650606999999994 C 407.5930000000001 44.93970699999999 404.56960000000004 44.275606999999994 401.6360000000001 44.80290699999999 L 225.29600000000008 71.23290699999998 C 222.74520000000007 71.63134699999998 220.4093000000001 72.89700699999999 218.68660000000008 74.81880699999998 L 165.2066000000001 133.56080699999998 C 164.3120700000001 134.57250699999997 163.59330000000008 135.728807 163.0777000000001 136.978807 L 104.3897000000001 286.60880699999996 C 103.50298000000011 289.06970699999994 103.50298000000011 291.761107 104.3897000000001 294.22210699999994 L 123.09270000000011 350.22210699999994 L 123.09660600000011 350.22210699999994 C 123.59660600000011 351.64010699999994 124.35830600000011 352.94870699999996 125.3349060000001 354.08930699999996 L 242.9349060000001 487.64930699999996 C 243.6927160000001 488.508677 244.5794060000001 489.24310699999995 245.56380600000008 489.832907 L 285.6028060000001 513.855907 L 285.6067120000001 513.855907 C 287.2942120000001 514.883207 289.2278120000001 515.441807 291.20441200000005 515.480907 C 291.89582200000007 515.535594 292.587212 515.535594 293.27861200000007 515.480907 L 437.53861200000006 488.769907 L 437.5347060000001 488.769907 C 438.6402060000001 488.531627 439.7144060000001 488.152717 440.7261060000001 487.648807 L 531.449106 439.48880699999995 C 534.0468060000001 438.16460699999993 536.0468060000001 435.90290699999997 537.0468060000001 433.16070699999995 L 590.245806 272.83070699999996 C 591.089556 270.28770699999995 590.9879960000001 267.52600699999994 589.968466 265.045507 z M 517.999 155.62739999999997 L 386.22900000000004 263.19739999999996 L 212.17900000000003 196.38839999999996 L 236.03400000000002 92.27839999999996 L 400.394 67.19239999999996 z M 183.22900000000004 147.11569999999998 L 221.70200000000006 104.83469999999997 L 200.25700000000006 198.07269999999997 L 137.98400000000007 324.80269999999996 L 126.78500000000007 290.86469999999997 z M 143.41300000000004 341.09569999999997 L 142.79972000000004 340.0293 L 208.37372000000005 207.19929999999997 L 382.25372000000004 273.39029999999997 L 407.67572000000007 430.86029999999994 L 259.2757200000001 472.2432999999999 L 258.2679200000001 471.6261099999999 z M 431.64300000000003 466.98569999999995 L 293.213 492.8016999999999 L 272.494 480.3676999999999 L 415.014 440.6646999999999 L 496.776 432.7115999999999 z M 517.995 419.21569999999997 L 418.874 429.12589999999994 L 393.28400000000005 271.6058999999999 L 524.664 164.58589999999992 L 567.672 269.69589999999994 z" stroke-linecap="round" />
</g>
<g transform="matrix(NaN NaN NaN NaN 0 0)"  >
<g style=""   >
</g>
</g>
<g transform="matrix(NaN NaN NaN NaN 0 0)"  >
<g style=""   >
</g>
</g>
<g transform="matrix(NaN NaN NaN NaN 0 0)"  >
<g style=""   >
</g>
</g>
<g transform="matrix(NaN NaN NaN NaN 0 0)"  >
<g style=""   >
</g>
</g>
</svg>