<?xml version="1.0" encoding="UTF-8" standalone="no" ?>
<!DOCTYPE svg PUBLIC "-//W3C//DTD SVG 1.1//EN" "http://www.w3.org/Graphics/SVG/1.1/DTD/svg11.dtd">
<svg xmlns="http://www.w3.org/2000/svg" xmlns:xlink="http://www.w3.org/1999/xlink" version="1.1" width="1080" height="1080" viewBox="0 0 1080 1080" xml:space="preserve">
<desc>Created with Fabric.js 5.2.4</desc>
<defs>
</defs>
<rect x="0" y="0" width="100%" height="100%" fill="transparent"></rect>
<g transform="matrix(1 0 0 1 540 540)" id="ccd64a1a-35c9-4f33-95d3-ce7dfa95e765"  >
<rect style="stroke: none; stroke-width: 1; stroke-dasharray: none; stroke-linecap: butt; stroke-dashoffset: 0; stroke-linejoin: miter; stroke-miterlimit: 4; fill: rgb(255,255,255); fill-rule: nonzero; opacity: 1; visibility: hidden;" vector-effect="non-scaling-stroke"  x="-540" y="-540" rx="0" ry="0" width="1080" height="1080" />
</g>
<g transform="matrix(1 0 0 1 540 540)" id="6a71c3f8-c01a-49ee-9771-909a8b7781e3"  >
</g>
<g transform="matrix(NaN NaN NaN NaN 0 0)"  >
<g style=""   >
</g>
</g>
<g transform="matrix(NaN NaN NaN NaN 0 0)"  >
<g style=""   >
</g>
</g>
<g transform="matrix(NaN NaN NaN NaN 0 0)"  >
<g style=""   >
</g>
</g>
<g transform="matrix(NaN NaN NaN NaN 0 0)"  >
<g style=""   >
</g>
</g>
<g transform="matrix(NaN NaN NaN NaN 0 0)"  >
<g style=""   >
</g>
</g>
<g transform="matrix(NaN NaN NaN NaN 0 0)"  >
<g style=""   >
</g>
</g>
<g transform="matrix(NaN NaN NaN NaN 0 0)"  >
<g style=""   >
</g>
</g>
<g transform="matrix(NaN NaN NaN NaN 0 0)"  >
<g style=""   >
</g>
</g>
<g transform="matrix(1.33 0 0 1.33 540 540)"  >
<path style="stroke: none; stroke-width: 1; stroke-dasharray: none; stroke-linecap: butt; stroke-dashoffset: 0; stroke-linejoin: miter; stroke-miterlimit: 4; fill: rgb(55,185,160); fill-rule: nonzero; opacity: 1;" vector-effect="non-scaling-stroke"  transform=" translate(-344.36, -274.38)" d="M 584.64 343.67 L 506.24199999999996 108.47000000000003 L 506.23809299999994 108.47000000000003 C 505.08969299999995 104.98560000000003 502.3083929999999 102.29030000000003 498.79279299999996 101.24340000000002 L 291.592793 39.641400000000026 L 291.592793 39.645307000000024 C 287.61619299999995 38.45000700000002 283.307593 39.547650000000026 280.389793 42.50080700000002 L 106.789793 216.10080700000003 L 106.7937 216.10080700000003 C 103.7703 219.11640700000004 102.7273 223.59300700000003 104.1062 227.63580700000003 L 188.1062 474.03580700000003 C 189.4656 478.11000700000005 193.032 481.043607 197.2898 481.59830700000003 L 398.88980000000004 509.59830700000003 L 400.3976 509.59830700000003 C 403.09680000000003 509.59440100000006 405.6984 508.621747 407.7335 506.852207 L 581.3335 355.65220700000003 C 584.7554 352.69130700000005 586.0562 347.96470700000003 584.6382 343.66820700000005 z M 206.86 459.20000000000005 L 246.95800000000003 263.48 L 432.208 453.88 z M 502.65000000000003 177.47000000000003 L 251.04000000000002 244.22000000000003 L 290.57500000000005 66.42000000000002 z M 239.45000000000005 245.341 L 132.49000000000007 222.103 L 276.5200000000001 78.40300000000002 z M 441.72 447.55100000000004 L 254.29000000000002 254.97100000000003 L 508.92 187.37700000000004 L 509.59187000000003 189.33790000000005 L 442.39287 446.93790000000007 z M 501.19300000000004 164.02100000000007 L 330.283 74.41900000000007 L 487.083 120.95400000000006 z M 129.69300000000004 232.95900000000006 L 236.99300000000005 256.31100000000004 L 199.69600000000005 438.261 z M 396.87300000000005 486.57900000000006 L 268.80300000000005 468.82500000000005 L 421.29300000000006 465.35230000000007 z M 457.63500000000005 433.71600000000007 L 516.1 208.81600000000006 L 560.9010000000001 343.66600000000005 z M 303.18500000000006 198.79600000000008 C 304.3412000000001 190.76480000000006 307.9623000000001 183.28800000000007 313.54400000000004 177.40100000000007 C 317.4229 172.92050000000006 320.87210000000005 168.08070000000006 323.84900000000005 162.95600000000007 C 325.7474 159.29580000000007 325.89200000000005 154.97160000000008 324.23962000000006 151.19400000000007 C 322.97402000000005 148.17840000000007 320.7513200000001 145.65880000000007 317.91152000000005 144.02600000000007 C 314.9388200000001 142.38540000000006 311.44672 141.96740000000005 308.16932 142.85020000000006 C 303.13022 143.97130000000007 300.44272 146.43610000000007 299.99352000000005 150.18610000000007 C 299.989613 153.53770000000006 300.67321000000004 156.85410000000007 302.00912000000005 159.93220000000008 L 285.20812000000006 163.85410000000007 L 285.20812000000006 163.85019400000007 C 283.00112000000007 158.54549400000008 282.19252000000006 152.76019400000007 282.85652000000005 147.04919400000009 C 284.31352000000004 138.5921940000001 290.69632000000007 133.2171940000001 301.89552000000003 130.7521940000001 L 301.89552000000003 130.7561010000001 C 309.73532000000006 128.7444010000001 318.01252000000005 129.3538010000001 325.47352 132.49050100000008 C 332.29772 135.4436010000001 337.75852000000003 140.8616010000001 340.76252 147.66650100000007 C 343.21952 152.65090100000006 343.64142 158.39350100000007 341.93832 163.68250100000006 C 340.20002 168.35440100000005 337.63752 172.67860100000007 334.37582 176.45250100000007 L 329.61411999999996 182.49940100000006 C 326.59072 186.23380100000006 324.57501999999994 188.97600100000005 323.56721999999996 190.72990100000007 C 322.74299999999994 192.38220100000007 322.21171999999996 194.16350100000008 322.00082 195.99550100000008 L 359.07081999999997 186.25330100000008 L 365.28562 199.97230100000007 L 305.70362 216.15630100000007 C 303.51612 210.64850100000007 302.65282 204.69930100000008 303.18412 198.79730100000006 z M 386.79400000000004 122.13200000000008 C 395.00100000000003 129.10080000000008 401.56000000000006 137.8040000000001 406.00100000000003 147.61200000000008 C 411.3174 156.56120000000007 414.1612 166.7680000000001 414.23150000000004 177.17800000000008 C 413.67291000000006 185.01780000000008 408.29400000000004 190.3930000000001 398.16150000000005 193.1390000000001 C 389.06770000000006 196.1702000000001 379.05950000000007 194.4437000000001 371.50550000000004 188.5452000000001 C 362.83360000000005 181.0296000000001 356.06050000000005 171.57220000000012 351.73550000000006 160.94020000000012 C 346.7902000000001 151.9597000000001 344.4621000000001 141.77620000000013 345.01670000000007 131.53820000000013 C 346.1378000000001 124.25700000000013 351.6808000000001 119.55420000000014 361.81770000000006 117.37020000000012 C 370.43100000000004 115.03040000000013 379.64170000000007 116.78426000000013 386.79470000000003 122.13190000000013 z M 379.7393 176.23000000000008 L 379.73539400000004 176.22609400000007 C 382.61039400000004 180.17529400000006 387.60259400000007 181.97609400000007 392.337394 180.76519400000006 C 394.380394 180.39410400000006 396.169394 179.16359400000007 397.23969400000004 177.38239400000006 C 398.31389400000006 175.60119400000005 398.56779400000005 173.44879400000005 397.93891400000007 171.46829400000007 C 396.39591400000006 164.48779400000006 393.8881140000001 157.76129400000008 390.48971400000005 151.47629400000008 C 387.47801400000003 144.76149400000008 383.60301400000003 138.47629400000008 378.954714 132.77329400000008 C 376.11881400000004 129.3044940000001 371.552414 127.76159400000007 367.192714 128.7966940000001 C 365.286514 129.02716400000008 363.55991400000005 130.0349940000001 362.42321400000003 131.58579400000008 C 361.29041400000006 133.13269400000007 360.845114 135.08579400000008 361.20051400000006 136.97249400000007 C 362.50131400000004 143.88659400000006 364.82161400000007 150.56649400000006 368.09111400000006 156.79649400000008 C 371.09501400000005 163.7573940000001 375.01301400000006 170.2924940000001 379.73611400000004 176.2264940000001 z" stroke-linecap="round" />
</g>
<g transform="matrix(NaN NaN NaN NaN 0 0)"  >
<g style=""   >
</g>
</g>
<g transform="matrix(NaN NaN NaN NaN 0 0)"  >
<g style=""   >
</g>
</g>
</svg>