<?xml version="1.0" encoding="UTF-8" standalone="no" ?>
<!DOCTYPE svg PUBLIC "-//W3C//DTD SVG 1.1//EN" "http://www.w3.org/Graphics/SVG/1.1/DTD/svg11.dtd">
<svg xmlns="http://www.w3.org/2000/svg" xmlns:xlink="http://www.w3.org/1999/xlink" version="1.1" width="1080" height="1080" viewBox="0 0 1080 1080" xml:space="preserve">
<desc>Created with Fabric.js 5.2.4</desc>
<defs>
</defs>
<rect x="0" y="0" width="100%" height="100%" fill="transparent"></rect>
<g transform="matrix(1 0 0 1 540 540)" id="ccd64a1a-35c9-4f33-95d3-ce7dfa95e765"  >
<rect style="stroke: none; stroke-width: 1; stroke-dasharray: none; stroke-linecap: butt; stroke-dashoffset: 0; stroke-linejoin: miter; stroke-miterlimit: 4; fill: rgb(255,255,255); fill-rule: nonzero; opacity: 1; visibility: hidden;" vector-effect="non-scaling-stroke"  x="-540" y="-540" rx="0" ry="0" width="1080" height="1080" />
</g>
<g transform="matrix(1 0 0 1 540 540)" id="6a71c3f8-c01a-49ee-9771-909a8b7781e3"  >
</g>
<g transform="matrix(NaN NaN NaN NaN 0 0)"  >
<g style=""   >
</g>
</g>
<g transform="matrix(NaN NaN NaN NaN 0 0)"  >
<g style=""   >
</g>
</g>
<g transform="matrix(NaN NaN NaN NaN 0 0)"  >
<g style=""   >
</g>
</g>
<g transform="matrix(NaN NaN NaN NaN 0 0)"  >
<g style=""   >
</g>
</g>
<g transform="matrix(NaN NaN NaN NaN 0 0)"  >
<g style=""   >
</g>
</g>
<g transform="matrix(NaN NaN NaN NaN 0 0)"  >
<g style=""   >
</g>
</g>
<g transform="matrix(NaN NaN NaN NaN 0 0)"  >
<g style=""   >
</g>
</g>
<g transform="matrix(NaN NaN NaN NaN 0 0)"  >
<g style=""   >
</g>
</g>
<g transform="matrix(NaN NaN NaN NaN 0 0)"  >
<g style=""   >
</g>
</g>
<g transform="matrix(NaN NaN NaN NaN 0 0)"  >
<g style=""   >
</g>
</g>
<g transform="matrix(1 0 0 1 540 540)"  >
<rect style="stroke: none; stroke-width: 1; stroke-dasharray: none; stroke-linecap: butt; stroke-dashoffset: 0; stroke-linejoin: miter; stroke-miterlimit: 4; fill: rgb(255,255,255); fill-rule: nonzero; opacity: 1; visibility: hidden;" vector-effect="non-scaling-stroke"  x="-540" y="-540" rx="0" ry="0" width="1080" height="1080" />
</g>
<g transform="matrix(1.33 0 0 1.33 540 540)"  >
<path style="stroke: none; stroke-width: 1; stroke-dasharray: none; stroke-linecap: butt; stroke-dashoffset: 0; stroke-linejoin: miter; stroke-miterlimit: 4; fill: rgb(55,185,160); fill-rule: nonzero; opacity: 1;" vector-effect="non-scaling-stroke"  transform=" translate(-361.16, -280.28)" d="M 577.81 385.34 L 329.16999999999996 38.81 C 326.8966 35.6498 323.14269999999993 33.895900000000005 319.2598 34.1811 C 315.37309999999997 34.46626 311.91999999999996 36.751400000000004 310.1309 40.2084 L 143.7009 363.2184 C 141.7595 367.00359999999995 142.1306 371.5582 144.65402999999998 374.9804 L 252.34402999999998 521.8104 C 254.44562999999997 524.6893 257.79713 526.3924 261.35963 526.4001999999999 C 262.77763 526.3923869999999 264.17992999999996 526.1267599999999 265.50413 525.6189499999999 L 572.8841299999999 402.41894999999994 L 572.8841299999999 402.4150429999999 C 576.0403299999999 401.1259429999999 578.4349299999999 398.4736429999999 579.3919299999999 395.20414299999993 C 580.3528699999999 391.93464299999994 579.7708399999999 388.40724299999994 577.8138299999999 385.61824299999995 z M 166.82999999999993 367.30899999999997 L 308.6199999999999 92.06899999999996 L 258.5579999999999 492.46899999999994 z M 268.8599999999999 500.139 L 322.8439999999999 68.37900000000002 L 551.6039999999998 386.79900000000004 z M 441.39999999999986 343.339 L 427.56799999999987 347.9328 L 440.1109999999999 383.82779999999997 L 414.74399999999986 393.12469999999996 L 403.2669999999999 356.16369999999995 L 350.0089999999999 373.91369999999995 L 343.3995999999999 344.96469999999994 L 366.80959999999993 249.26169999999993 L 391.1685999999999 243.66009999999994 L 419.1685999999999 324.58209999999997 L 432.6645999999999 320.4376 z M 395.75899999999984 331.691 L 377.2789999999998 271.93699999999995 L 363.6739999999998 341.60499999999996 z" stroke-linecap="round" />
</g>
</svg>