<?xml version="1.0" encoding="UTF-8" standalone="no" ?>
<!DOCTYPE svg PUBLIC "-//W3C//DTD SVG 1.1//EN" "http://www.w3.org/Graphics/SVG/1.1/DTD/svg11.dtd">
<svg xmlns="http://www.w3.org/2000/svg" xmlns:xlink="http://www.w3.org/1999/xlink" version="1.1" width="1080" height="1080" viewBox="0 0 1080 1080" xml:space="preserve">
<desc>Created with Fabric.js 5.2.4</desc>
<defs>
</defs>
<rect x="0" y="0" width="100%" height="100%" fill="transparent"></rect>
<g transform="matrix(1 0 0 1 540 540)" id="89a5a895-a5f3-4355-b672-28a771ae9e89"  >
<rect style="stroke: none; stroke-width: 1; stroke-dasharray: none; stroke-linecap: butt; stroke-dashoffset: 0; stroke-linejoin: miter; stroke-miterlimit: 4; fill: rgb(255,255,255); fill-rule: nonzero; opacity: 1; visibility: hidden;" vector-effect="non-scaling-stroke"  x="-540" y="-540" rx="0" ry="0" width="1080" height="1080" />
</g>
<g transform="matrix(1 0 0 1 540 540)" id="34bd0192-25bb-494a-9984-68278ef82c19"  >
</g>
<g transform="matrix(0 0 0 0 0 0)"  >
<g style=""   >
</g>
</g>
<g transform="matrix(0 0 0 0 0 0)"  >
<g style=""   >
</g>
</g>
<g transform="matrix(1.33 0 0 1.33 519.29 540)"  >
<path style="stroke: none; stroke-width: 1; stroke-dasharray: none; stroke-linecap: butt; stroke-dashoffset: 0; stroke-linejoin: miter; stroke-miterlimit: 4; fill: rgb(55,185,160); fill-rule: nonzero; opacity: 1;" vector-effect="non-scaling-stroke"  transform=" translate(-349.99, -278.48)" d="M 552.05 172.7 L 346.18999999999994 40.98999999999998 C 342.20559999999995 38.35329999999998 336.9907999999999 38.53299999999998 333.1979999999999 41.43921999999998 L 147.05799999999994 181.43921999999998 C 144.15959999999993 183.71651999999997 142.56969999999993 187.27901999999997 142.80409999999995 190.95871999999997 L 148.40569999999994 358.95871999999997 L 148.40179399999994 358.95871999999997 C 148.53070399999993 362.41182 150.24559399999993 365.61891999999995 153.05019399999995 367.63842 L 358.96019399999994 515.6984199999999 C 360.86639399999996 517.0812199999999 363.15939399999996 517.8234199999999 365.5109939999999 517.82732 C 368.2687939999999 517.909351 370.96019399999994 516.97576 373.06959399999994 515.19452 L 547.9595939999999 355.48452 C 550.1861939999999 353.44932 551.4986939999999 350.60172 551.6001939999999 347.59002 L 557.2017939999998 182.50001999999998 L 557.1978879999998 182.50001999999998 C 557.3306979999998 178.55471999999997 555.3697879999999 174.83201999999997 552.0455879999998 172.69921999999997 z M 340.7099999999999 63.999999999999986 L 532.28 186.64 L 365.12 332.24 L 168.34 193.81 z M 170.80999999999992 352.79 L 165.88029999999992 205.90000000000003 L 359.9202999999999 342.03000000000003 L 359.9202999999999 488.81000000000006 z M 371.2899999999999 486.63 L 371.2899999999999 341.59000000000003 L 534.1899999999999 199.80000000000004 L 529.2055999999999 342.1 z M 335.7859999999999 158.51999999999998 C 333.6765999999999 156.9809 331.2078999999999 156.0161 328.6179999999999 155.71919999999997 C 323.77819999999986 154.94966999999997 318.8952999999999 156.80509999999998 315.79399999999987 160.59419999999997 C 310.52839999999986 166.47309999999996 310.52839999999986 173.80919999999998 315.79399999999987 182.65619999999998 C 320.60649999999987 189.47259999999997 326.24699999999984 195.66019999999997 332.59499999999986 201.08219999999997 C 331.3840999999999 196.55099999999996 331.3840999999999 191.78139999999996 332.59499999999986 187.25019999999998 C 333.9816999999999 182.7111 336.32939999999985 178.5314 339.4816999999999 174.9842 C 346.26689999999985 166.93339999999998 356.28269999999986 162.31619999999998 366.80969999999985 162.38219999999998 C 378.58669999999984 162.51891999999998 389.96169999999984 166.7103 399.00869999999986 174.25719999999998 C 409.09069999999986 181.7533 416.61769999999984 192.1752 420.5676999999999 204.10519999999997 C 424.5442999999999 216.08919999999998 421.9114999999999 228.07419999999996 412.5598999999999 240.05819999999997 L 412.5598999999999 240.05429299999997 C 407.9153999999999 246.33159299999997 401.4548999999999 251.02329299999997 394.05189999999993 253.49929299999997 C 386.6456999999999 255.97199299999997 378.6608999999999 256.10869299999996 371.17689999999993 253.88601299999996 C 355.4658999999999 249.62821299999996 340.9778999999999 241.72601299999997 328.8958999999999 230.81601299999997 C 321.97009999999995 225.18711299999998 315.3728999999999 219.16401299999998 309.1298999999999 212.78501299999996 C 301.87209999999993 205.39831299999997 296.0598999999999 196.71901299999996 291.9928999999999 187.19101299999997 C 289.3639999999999 180.64021299999996 288.42259999999993 173.53901299999998 289.2467999999999 166.52701299999995 C 290.23507999999987 159.37861299999994 293.4733999999999 152.73001299999996 298.4889999999999 147.54301299999995 C 304.9498999999999 139.84771299999994 314.0589999999999 134.85201299999994 324.02399999999994 133.54301299999995 C 333.73099999999994 132.61723299999994 343.44599999999997 135.20321299999995 351.4069999999999 140.82421299999996 z M 379.2429999999999 231.32099999999997 L 379.2390939999999 231.32099999999997 C 384.95389399999993 231.86786999999998 390.54809399999994 229.46159999999998 394.0790939999999 224.93819999999997 C 395.7938939999999 222.91869999999997 396.94239399999987 220.48119999999997 397.4032939999999 217.87179999999998 C 397.8642339999999 215.26629999999997 397.6259539999999 212.5827 396.7118839999999 210.09839999999997 C 394.48528399999987 203.99289999999996 390.4618839999999 198.70339999999996 385.17688399999986 194.92239999999998 C 380.13388399999985 190.26219999999998 373.6568839999999 187.45759999999999 366.80988399999984 186.96929999999998 C 361.5676839999998 186.72320999999997 356.5128839999998 188.93809999999996 353.14588399999985 192.96149999999997 C 350.46228399999984 196.06309999999996 349.04428399999983 200.05919999999998 349.16928399999983 204.16049999999998 C 349.9466239999998 211.8207 354.03648399999986 218.7585 360.36828399999985 223.1445 C 365.5791839999998 227.86329999999998 372.2272839999998 230.6875 379.2392839999998 231.1523 z" stroke-linecap="round" />
</g>
<g transform="matrix(NaN NaN NaN NaN 0 0)"  >
<g style=""   >
</g>
</g>
<g transform="matrix(NaN NaN NaN NaN 0 0)"  >
<g style=""   >
</g>
</g>
</svg>