<?xml version="1.0" encoding="UTF-8" standalone="no" ?>
<!DOCTYPE svg PUBLIC "-//W3C//DTD SVG 1.1//EN" "http://www.w3.org/Graphics/SVG/1.1/DTD/svg11.dtd">
<svg xmlns="http://www.w3.org/2000/svg" xmlns:xlink="http://www.w3.org/1999/xlink" version="1.1" width="1080" height="1080" viewBox="0 0 1080 1080" xml:space="preserve">
<desc>Created with Fabric.js 5.2.4</desc>
<defs>
</defs>
<g transform="matrix(1 0 0 1 540 540)" id="ccd64a1a-35c9-4f33-95d3-ce7dfa95e765"  >
<rect style="stroke: none; stroke-width: 1; stroke-dasharray: none; stroke-linecap: butt; stroke-dashoffset: 0; stroke-linejoin: miter; stroke-miterlimit: 4; fill: rgb(255,255,255); fill-rule: nonzero; opacity: 1; visibility: hidden;" vector-effect="non-scaling-stroke"  x="-540" y="-540" rx="0" ry="0" width="1080" height="1080" />
</g>
<g transform="matrix(1 0 0 1 540 540)" id="6a71c3f8-c01a-49ee-9771-909a8b7781e3"  >
</g>
<g transform="matrix(1.33 0 0 1.33 540 540)"  >
<path style="stroke: none; stroke-width: 1; stroke-dasharray: none; stroke-linecap: butt; stroke-dashoffset: 0; stroke-linejoin: miter; stroke-miterlimit: 4; fill: rgb(55,185,160); fill-rule: nonzero; opacity: 1;" vector-effect="non-scaling-stroke"  transform=" translate(-347.88, -278.6)" d="M 329.67 199.86 C 328.1739 193.70770000000002 329.26766000000003 187.21200000000002 332.6934 181.883 C 325.4317 182.09784000000002 318.2204 180.5432 311.6934 177.3478 C 307.0332 174.90640000000002 302.7793 171.75400000000002 299.0954 167.99620000000002 C 292.4352 161.65240000000003 289.31419999999997 152.4412 290.7516 143.35520000000002 C 292.1696 134.43330000000003 298.6657 126.66720000000002 310.2396 120.05820000000003 L 310.23569299999997 120.05820000000003 C 320.43069299999996 113.72230000000003 332.49369299999995 111.09340000000003 344.39569299999994 112.61290000000002 C 354.8486929999999 113.88240000000002 364.53269299999994 118.75350000000003 371.78269299999994 126.38590000000002 C 375.05219299999993 129.97570000000002 377.6303929999999 134.13200000000003 379.3959929999999 138.6519 C 381.29829299999994 144.0308 380.7865929999999 149.9719 377.99759299999994 154.9489 C 386.0014929999999 154.47624000000002 394.0055929999999 155.83562 401.40359299999994 158.9255 C 408.6262929999999 161.906 415.1065929999999 166.4372 420.3875929999999 172.1955 C 427.9969929999999 179.5353 431.6575929999999 190.05450000000002 430.24309299999993 200.5315 C 428.67669299999994 210.76149999999998 421.43059299999993 219.57049999999998 408.51609299999996 226.9655 C 397.88709299999994 233.78969999999998 385.200093 236.6686 372.664093 235.10219999999998 C 360.12909299999995 233.5358 348.543093 227.6256 339.918093 218.3952 C 334.890793 213.25459999999998 331.351693 206.85219999999998 329.668093 199.8602 z M 377.99800000000005 212.798 C 383.5332 213.9308 389.2950000000001 212.93081 394.12700000000007 209.9972 C 398.66220000000004 207.962 401.81840000000005 203.72379999999998 402.47080000000005 198.79819999999998 C 402.3887690000001 193.3138 400.01380000000006 188.1102 395.9200000000001 184.46219999999997 C 391.84190000000007 179.70439999999996 386.34580000000005 176.38799999999998 380.23600000000005 174.99739999999997 C 374.7243 173.97399999999996 369.02500000000003 175.00911899999997 364.22 177.90759999999997 C 359.72 179.98569999999998 356.5794 184.20449999999997 355.87620000000004 189.11059999999998 C 355.91916900000007 194.69259999999997 358.34100000000007 199.98959999999997 362.54030000000006 203.66959999999997 C 366.5950000000001 208.27509999999998 372.0051000000001 211.47429999999997 377.99730000000005 212.79849999999996 z M 335.66200000000003 164.974 C 340.4315 165.80212999999998 345.34170000000006 164.888063 349.494 162.39589999999998 C 353.47450000000003 160.6342 356.28310000000005 156.95839999999998 356.94320000000005 152.6537 C 357.04476000000005 148.40759999999997 355.3104000000001 144.32559999999998 352.1815 141.45469999999997 C 348.869 137.64999999999998 344.4042 135.03669999999997 339.4705 134.00549999999998 C 334.6307 133.19690999999997 329.6658 134.15003 325.4705 136.69299999999998 C 321.54470000000003 138.486 318.7439 142.0836 317.9666 146.3258 C 317.79863 150.81799999999998 319.64630000000005 155.1539 323.00570000000005 158.1418 C 326.30260000000004 161.6301 330.64630000000005 163.9504 335.38070000000005 164.75119999999998 z M 590.802 149.63 C 589.427 146.9386 587.0247 144.9191 584.1379000000001 144.0284 L 224.78790000000004 37.45840000000001 C 218.91290000000004 35.669300000000014 212.69390000000004 38.93890000000001 210.84290000000004 44.794300000000014 L 104.11290000000004 393.33430000000004 C 102.31990000000003 399.20930000000004 105.59340000000005 405.42830000000004 111.44880000000003 407.27930000000003 L 471.0788 519.6693 C 472.1608 520.0443 473.2976 520.23571 474.4421 520.22789 C 476.26239999999996 520.231797 478.05539999999996 519.76695 479.6491 518.88409 C 482.3366 517.50909 484.35609999999997 515.10679 485.24679999999995 512.21999 L 591.6468 158.18999000000008 L 591.650706 158.18999000000008 C 592.521796 155.3383900000001 592.221016 152.25249000000008 590.810866 149.6235900000001 z M 560.505 160.829 L 281.685 325.919 L 230.111 62.438999999999965 z M 222.65499999999997 82.989 L 271.26399999999995 331.23900000000003 L 130.14399999999995 384.833 z M 140.38899999999995 392.889 L 276.52899999999994 341.201 L 440.88899999999995 486.80100000000004 z M 466.929 494.92900000000003 L 287.169 335.659 L 564.259 171.29899999999998 z" stroke-linecap="round" />
</g>
<g transform="matrix(NaN NaN NaN NaN 0 0)"  >
<g style=""   >
</g>
</g>
<g transform="matrix(NaN NaN NaN NaN 0 0)"  >
<g style=""   >
</g>
</g>
</svg>